<?xml version="1.0" encoding="UTF-8"?>
<svg width="201px" height="42px" viewBox="0 0 201 42" version="1.1" xmlns="http://www.w3.org/2000/svg" xmlns:xlink="http://www.w3.org/1999/xlink">
    <title>trello-logo-blue</title>
    <g id="Page-1" stroke="none" stroke-width="1" fill="none" fill-rule="evenodd">
        <g id="trello-logo-blue">
            <path d="M35.4070474,0.170109356 L4.88456865,0.170109356 C2.2600243,0.170109356 0.121506683,2.30862697 0.121506683,4.93317132 L0.121506683,35.4799514 C0.121506683,38.1044957 2.2600243,40.2430134 4.88456865,40.2430134 L35.4313487,40.2430134 C38.0558931,40.2430134 40.1944107,38.1044957 40.1944107,35.4799514 L40.1944107,4.93317132 C40.1701094,2.28432564 38.0558931,0.170109356 35.4070474,0.170109356 Z M17.3754557,29.0157959 C17.3754557,29.890644 16.6707169,30.5953827 15.7958688,30.5953827 L9.08869988,30.5953827 C8.21385176,30.5953827 7.509113,29.890644 7.509113,29.0157959 L7.509113,9.13730255 C7.509113,8.26245443 8.21385176,7.55771567 9.08869988,7.55771567 L15.7958688,7.55771567 C16.6707169,7.55771567 17.3754557,8.26245443 17.3754557,9.13730255 L17.3754557,29.0157959 Z M32.782503,19.9027947 C32.782503,20.7776428 32.0777643,21.4823815 31.2029162,21.4823815 L24.4957473,21.4823815 C23.6208991,21.4823815 22.9161604,20.7776428 22.9161604,19.9027947 L22.9161604,9.13730255 C22.9161604,8.26245443 23.6208991,7.55771567 24.4957473,7.55771567 L31.2029162,7.55771567 C32.0777643,7.55771567 32.782503,8.26245443 32.782503,9.13730255 L32.782503,19.9027947 Z" id="Shape" fill="#0079BF"></path>
            <g id="Group" transform="translate(55.893074, 0.000000)" fill="#253858" fill-rule="nonzero">
                <g>
                    <polygon id="Path" points="27.2660996 3.11057108 27.2660996 10.8626974 18.0801944 10.8626974 18.0801944 40.2430134 9.2345079 40.2430134 9.2345079 10.8383961 0.0486026731 10.8383961 0.0486026731 3.11057108"></polygon>
                    <path d="M38.5176185,40.218712 L30.328068,40.218712 L30.328068,11.3487242 L38.5176185,11.3487242 L38.5176185,16.8894289 C40.072904,13.0012151 42.5516403,10.6682868 46.9744836,10.9599028 L46.9744836,19.4896719 C41.2150668,19.0279465 38.5176185,20.4617254 38.5176185,25.0789793 L38.5176185,40.218712 Z" id="Path"></path>
                    <path d="M91.6889429,40.4617254 C86.3183475,40.4617254 82.9647631,37.8614824 82.9647631,31.8104496 L82.9647631,0.170109356 L91.2029162,0.170109356 L91.2029162,30.6925881 C91.2029162,32.4422843 92.3693803,33.0741191 93.8031592,33.0741191 C94.2405832,33.0741191 94.5321993,33.0741191 95.018226,33.0255164 L95.018226,40.145808 C94.5565006,40.291616 93.3414338,40.4617254 91.6889429,40.4617254 Z" id="Path"></path>
                    <path d="M108.869988,40.4617254 C103.499392,40.4617254 100.145808,37.8614824 100.145808,31.8104496 L100.145808,0.170109356 L108.383961,0.170109356 L108.383961,30.6925881 C108.383961,32.4422843 109.550425,33.0741191 110.984204,33.0741191 C111.421628,33.0741191 111.713244,33.0741191 112.199271,33.0255164 L112.199271,40.145808 C111.761847,40.291616 110.522479,40.4617254 108.869988,40.4617254 Z" id="Path"></path>
                    <path d="M116.136087,25.7594168 C116.136087,16.8408262 121.287971,10.7168894 130.133657,10.7168894 C138.930741,10.7168894 144.009721,16.8165249 144.009721,25.7594168 C144.009721,34.6294046 138.930741,40.8991495 130.133657,40.8991495 C121.26367,40.8991495 116.136087,34.6294046 116.136087,25.7594168 Z M124.155529,25.7594168 C124.155529,30.109356 125.978129,33.5601458 130.133657,33.5601458 C134.216282,33.5601458 135.990279,30.109356 135.990279,25.7594168 C135.990279,21.4094775 134.216282,18.0801944 130.133657,18.0801944 C125.978129,18.0801944 124.155529,21.4094775 124.155529,25.7594168 Z" id="Shape"></path>
                </g>
                <path d="M58.0315917,28.3839611 C59.6111786,28.5540705 62.2600243,28.7970838 64.9331713,28.7970838 C71.2029162,28.7970838 76.5006075,27.1202916 76.5006075,21.0449575 C76.5006075,15.164034 71.0571081,10.7168894 64.5200486,10.7168894 C55.6986634,10.7168894 50.0607533,17.1081409 50.0607533,26.0267315 C50.0607533,35.2855407 54.9210207,40.7776428 65.9295261,40.7776428 C69.3074119,40.7776428 72.9526124,40.145808 75.5042527,39.0765492 L75.5042527,32.1506683 C72.6852977,33.0498177 69.5018226,33.9489672 66.2454435,33.9489672 C61.8226002,33.9732685 58.7849332,32.5394897 58.0315917,28.3839611 Z M64.3256379,17.0352369 C66.6342649,17.0352369 68.5054678,18.6148238 68.5054678,20.7533414 C68.5054678,23.5236938 65.5893074,24.3985419 62.2114216,24.3985419 C60.5103281,24.3985419 58.9793439,24.2284326 57.9343864,24.0583232 C58.1044957,22.6245443 58.4447145,21.2636695 59.0765492,20.218712 C60.2430134,18.3232078 62.0413123,17.0352369 64.3256379,17.0352369 Z" id="Shape"></path>
            </g>
        </g>
    </g>
</svg>